#Comment line ignore any data following # character 
#Hierarchical Translation and Rotation (.htr) file 
[Header]	
#Header keywords are followed by a single value 
FileType HTR		#Single word string
DataType HTRS		#Translation followed by rotation and scale data
FileVersion 1		#integer
NumSegments 64		#integer
NumFrames 3		#integer
DataFrameRate 30		#integer, data frame rate in this file
EulerRotationOrder ZYX
CalibrationUnits mm
RotationUnits Degrees
GlobalAxisofGravity Y
BoneLengthAxis Y
ScaleFactor 1.00
[SegmentNames&Hierarchy]
#CHILD	PARENT
Pinger_Root GLOBAL
Pelvis Pinger_Root
L_Hip Pelvis
R_Hip Pelvis
Rear_Leg01 Pelvis
Spine1 Pelvis
L_Leg01 L_Hip
L_Leg02 L_Leg01
L_Leg03 L_Leg02
L_Foot L_Leg03
L_Toe1_01 L_Foot
L_Toe2_01 L_Foot
L_Toe3_01 L_Foot
planeAlignerLeft L_Foot
L_Toe1_02 L_Toe1_01
L_Toe1_03 L_Toe1_02
L_Toe2_02 L_Toe2_01
L_Toe2_03 L_Toe2_02
L_Toe3_02 L_Toe3_01
L_Toe3_03 L_Toe3_02
planeLockWeightLeft planeAlignerLeft
R_Leg01 R_Hip
R_Leg02 R_Leg01
R_Leg03 R_Leg02
R_Foot R_Leg03
planeAlignerRight R_Foot
R_Toe1_01 R_Foot
R_Toe2_01 R_Foot
R_Toe3_01 R_Foot
planeLockWeightRight planeAlignerRight
R_Toe1_02 R_Toe1_01
R_Toe1_03 R_Toe1_02
R_Toe2_02 R_Toe2_01
R_Toe2_03 R_Toe2_02
R_Toe3_02 R_Toe3_01
R_Toe3_03 R_Toe3_02
Rear_Leg02 Rear_Leg01
Rear_Leg03 Rear_Leg02
Rear_Leg04 Rear_Leg03
Rear_Foot Rear_Leg04
planeAlignerCenter Rear_Foot
Rear_Toe1_01 Rear_Foot
Rear_Toe2_01 Rear_Foot
Rear_Toe3_01 Rear_Foot
planeLockWeightCenter planeAlignerCenter
Rear_Toe1_02 Rear_Toe1_01
Rear_Toe1_03 Rear_Toe1_02
Rear_Toe2_02 Rear_Toe2_01
Rear_Toe2_03 Rear_Toe2_02
Rear_Toe3_02 Rear_Toe3_01
Rear_Toe3_03 Rear_Toe3_02
Back_Bone Spine1
Head Spine1
Motor_Bone Back_Bone
Ping_Mechanism Back_Bone
BN_LookIK Head
bottomMouth Head
L_Mouth01 Head
L_mouthFront Head
mouthGun Head
R_Mouth01 Head
R_mouthFront Head
TopMouth Head
weapon_bone Head
[BasePosition]
#SegmentName Tx, Ty, Tz, Rx, Ry, Rz, BoneLength
Pinger_Root 0.000000 0.000000 0.000000 -90.000000 0.000000 0.000000 10.000000 
Pelvis 0.000000 0.000000 0.000000 0.000000 0.000000 0.000000 10.000000 
L_Hip 0.000000 0.000000 0.000000 0.000000 0.000000 0.000000 10.000000 
R_Hip 0.000000 0.000000 0.000000 0.000000 0.000000 0.000000 10.000000 
Rear_Leg01 0.000000 0.000000 0.000000 0.000000 0.000000 0.000000 10.000000 
Spine1 0.000000 0.000000 0.000000 0.000000 0.000000 0.000000 10.000000 
L_Leg01 0.000000 0.000000 0.000000 0.000000 0.000000 0.000000 10.000000 
L_Leg02 0.000000 0.000000 0.000000 0.000000 0.000000 0.000000 10.000000 
L_Leg03 0.000000 0.000000 0.000000 0.000000 0.000000 0.000000 10.000000 
L_Foot 0.000000 0.000000 0.000000 0.000000 0.000000 0.000000 10.000000 
L_Toe1_01 0.000000 0.000000 0.000000 0.000000 0.000000 0.000000 10.000000 
L_Toe2_01 0.000000 0.000000 0.000000 0.000000 0.000000 0.000000 10.000000 
L_Toe3_01 0.000000 0.000000 0.000000 0.000000 0.000000 0.000000 10.000000 
planeAlignerLeft 0.000000 0.000000 0.000000 0.000000 0.000000 0.000000 10.000000 
L_Toe1_02 0.000000 0.000000 0.000000 0.000000 0.000000 0.000000 10.000000 
L_Toe1_03 0.000000 0.000000 0.000000 0.000000 0.000000 0.000000 10.000000 
L_Toe2_02 0.000000 0.000000 0.000000 0.000000 0.000000 0.000000 10.000000 
L_Toe2_03 0.000000 0.000000 0.000000 0.000000 0.000000 0.000000 10.000000 
L_Toe3_02 0.000000 0.000000 0.000000 0.000000 0.000000 0.000000 10.000000 
L_Toe3_03 0.000000 0.000000 0.000000 0.000000 0.000000 0.000000 10.000000 
planeLockWeightLeft 0.000000 0.000000 0.000000 0.000000 0.000000 0.000000 10.000000 
R_Leg01 0.000000 0.000000 0.000000 0.000000 0.000000 0.000000 10.000000 
R_Leg02 0.000000 0.000000 0.000000 0.000000 0.000000 0.000000 10.000000 
R_Leg03 0.000000 0.000000 0.000000 0.000000 0.000000 0.000000 10.000000 
R_Foot 0.000000 0.000000 0.000000 0.000000 0.000000 0.000000 10.000000 
planeAlignerRight 0.000000 0.000000 0.000000 0.000000 0.000000 0.000000 10.000000 
R_Toe1_01 0.000000 0.000000 0.000000 0.000000 0.000000 0.000000 10.000000 
R_Toe2_01 0.000000 0.000000 0.000000 0.000000 0.000000 0.000000 10.000000 
R_Toe3_01 0.000000 0.000000 0.000000 0.000000 0.000000 0.000000 10.000000 
planeLockWeightRight 0.000000 0.000000 0.000000 0.000000 0.000000 0.000000 10.000000 
R_Toe1_02 0.000000 0.000000 0.000000 0.000000 0.000000 0.000000 10.000000 
R_Toe1_03 0.000000 0.000000 0.000000 0.000000 0.000000 0.000000 10.000000 
R_Toe2_02 0.000000 0.000000 0.000000 0.000000 0.000000 0.000000 10.000000 
R_Toe2_03 0.000000 0.000000 0.000000 0.000000 0.000000 0.000000 10.000000 
R_Toe3_02 0.000000 0.000000 0.000000 0.000000 0.000000 0.000000 10.000000 
R_Toe3_03 0.000000 0.000000 0.000000 0.000000 0.000000 0.000000 10.000000 
Rear_Leg02 0.000000 0.000000 0.000000 0.000000 0.000000 0.000000 10.000000 
Rear_Leg03 0.000000 0.000000 0.000000 0.000000 0.000000 0.000000 10.000000 
Rear_Leg04 0.000000 0.000000 0.000000 0.000000 0.000000 0.000000 10.000000 
Rear_Foot 0.000000 0.000000 0.000000 0.000000 0.000000 0.000000 10.000000 
planeAlignerCenter 0.000000 0.000000 0.000000 0.000000 0.000000 0.000000 10.000000 
Rear_Toe1_01 0.000000 0.000000 0.000000 0.000000 0.000000 0.000000 10.000000 
Rear_Toe2_01 0.000000 0.000000 0.000000 0.000000 0.000000 0.000000 10.000000 
Rear_Toe3_01 0.000000 0.000000 0.000000 0.000000 0.000000 0.000000 10.000000 
planeLockWeightCenter 0.000000 0.000000 0.000000 0.000000 0.000000 0.000000 10.000000 
Rear_Toe1_02 0.000000 0.000000 0.000000 0.000000 0.000000 0.000000 10.000000 
Rear_Toe1_03 0.000000 0.000000 0.000000 0.000000 0.000000 0.000000 10.000000 
Rear_Toe2_02 0.000000 0.000000 0.000000 0.000000 0.000000 0.000000 10.000000 
Rear_Toe2_03 0.000000 0.000000 0.000000 0.000000 0.000000 0.000000 10.000000 
Rear_Toe3_02 0.000000 0.000000 0.000000 0.000000 0.000000 0.000000 10.000000 
Rear_Toe3_03 0.000000 0.000000 0.000000 0.000000 0.000000 0.000000 10.000000 
Back_Bone 0.000000 0.000000 0.000000 0.000000 0.000000 0.000000 10.000000 
Head 0.000000 0.000000 0.000000 0.000000 0.000000 0.000000 10.000000 
Motor_Bone 0.000000 0.000000 0.000000 0.000000 0.000000 0.000000 10.000000 
Ping_Mechanism 0.000000 0.000000 0.000000 0.000000 0.000000 0.000000 10.000000 
BN_LookIK 0.000000 0.000000 0.000000 0.000000 0.000000 0.000000 10.000000 
bottomMouth 0.000000 0.000000 0.000000 0.000000 0.000000 0.000000 10.000000 
L_Mouth01 0.000000 0.000000 0.000000 0.000000 0.000000 0.000000 10.000000 
L_mouthFront 0.000000 0.000000 0.000000 0.000000 0.000000 0.000000 10.000000 
mouthGun 0.000000 0.000000 0.000000 0.000000 0.000000 0.000000 10.000000 
R_Mouth01 0.000000 0.000000 0.000000 0.000000 0.000000 0.000000 10.000000 
R_mouthFront 0.000000 0.000000 0.000000 0.000000 0.000000 0.000000 10.000000 
TopMouth 0.000000 0.000000 0.000000 0.000000 0.000000 0.000000 10.000000 
weapon_bone 0.000000 0.000000 0.000000 0.000000 0.000000 0.000000 10.000000 
#Beginning of Data. Separated by tabs
#Fr	Tx	Ty	Tz	Rx	Ry	Rz	SF
[Pinger_Root]
11 0.000000 0.000000 0.000000 -0.000075 -0.000000 -0.000020 0.000000
12 0.000000 0.000000 0.000000 -0.000075 -0.000000 -0.000020 0.000000
13 0.000000 0.000000 0.000000 -0.000075 -0.000000 -0.000020 0.000000
[Pelvis]
11 -11.287930 792.029602 4627.039063 -94.909363 -81.506752 48.637684 4694.350586
12 6.157375 728.060547 4662.450684 -115.724678 -79.873619 67.977379 4718.957031
13 34.638657 632.484314 4700.047852 -129.833328 -77.391068 80.607185 4742.540039
[L_Hip]
11 5.766392 125.831482 872.656799 160.903244 -63.792027 113.413033 881.701050
12 5.766392 125.831482 872.656799 161.685333 -66.490936 111.640984 881.701050
13 5.766392 125.831482 872.656799 162.794800 -69.172028 109.553047 881.701050
[R_Hip]
11 5.765438 125.836372 -872.654907 33.586254 66.429230 120.702110 881.699829
12 5.765438 125.836372 -872.654907 31.830826 68.872940 119.121521 881.699829
13 5.765438 125.836372 -872.654907 29.647570 71.294716 117.111748 881.699829
[Rear_Leg01]
11 -192.298416 -925.602966 -0.001907 -162.473145 1.963718 -149.729980 945.367432
12 -192.298416 -925.602966 -0.001907 -165.960724 -0.930666 -150.870865 945.367432
13 -192.298416 -925.602966 -0.001907 -169.397446 -3.888646 -151.835678 945.367432
[Spine1]
11 290.604584 5.007505 0.000477 37.243229 -15.433288 12.927934 290.647736
12 290.604584 5.007505 0.000477 38.894299 -12.516999 12.070277 290.647736
13 290.604584 5.007505 0.000477 40.483200 -9.580881 11.307279 290.647736
[L_Leg01]
11 761.932007 -0.002384 -0.069261 48.335194 -7.002005 -42.333992 761.932068
12 761.932007 -0.002384 -0.069261 52.636868 -9.568801 -38.478687 761.932068
13 761.932007 -0.002384 -0.069261 56.060551 -11.358652 -34.990906 761.932068
[L_Leg02]
11 1441.140503 -0.000954 -0.000715 0.721061 -0.089114 -116.270477 1441.140503
12 1441.140503 -0.000954 -0.000715 1.142316 -0.160760 -121.411530 1441.140503
13 1441.140503 -0.000954 -0.000715 1.296750 -0.189188 -123.841209 1441.140503
[L_Leg03]
11 1686.963989 -0.000715 -0.000954 -0.011403 0.002335 113.148468 1686.963989
12 1686.963989 -0.000715 -0.000954 -0.009350 0.003670 112.807068 1686.963989
13 1686.963989 -0.000715 -0.000954 -0.007306 0.005016 112.465668 1686.963989
[L_Foot]
11 3041.570068 -30.715107 11.297464 -15.377661 53.424114 54.702000 3041.746094
12 3041.570068 -30.715107 11.297464 -18.115456 56.134396 54.173214 3041.746094
13 3041.570068 -30.715107 11.297464 -21.770063 57.605572 51.510536 3041.746094
[L_Toe1_01]
11 -188.216690 -224.732346 -21.137953 98.890503 -9.089500 -173.418365 293.899567
12 -188.216690 -224.732346 -21.137953 99.868385 -10.421227 -172.964310 293.899567
13 -188.216690 -224.732346 -21.137953 100.645653 -11.697499 -171.871460 293.899567
[L_Toe2_01]
11 200.746536 -219.926590 148.838394 -86.894562 -25.493408 -55.301704 332.896027
12 200.746536 -219.926590 148.838394 -87.261139 -25.744326 -53.572159 332.896027
13 200.746536 -219.926590 148.838394 -87.800415 -26.368488 -51.314507 332.896027
[L_Toe3_01]
11 188.832520 -219.859131 -191.078659 -106.821625 6.324083 -69.675591 347.140900
12 188.832520 -219.859131 -191.078659 -107.406906 3.749278 -70.295952 347.140900
13 188.832520 -219.859131 -191.078659 -108.094978 1.758360 -70.684311 347.140900
[planeAlignerLeft]
11 123.791458 -666.793762 154.358932 169.306686 -76.298271 89.968506 695.532104
12 157.439850 -698.965332 183.139313 169.306686 -76.298271 89.968506 739.513245
13 169.673752 -719.171387 209.523270 169.306686 -76.298271 89.968506 768.047302
[L_Toe1_02]
11 413.761139 0.000477 0.000000 0.001394 -24.704069 0.001394 413.761139
12 413.761139 0.000477 0.000000 0.001399 -24.092785 0.001399 413.761139
13 413.761139 0.000477 0.000000 0.001399 -24.099871 0.001399 413.761139
[L_Toe1_03]
11 464.317322 0.000358 -0.000089 0.006506 69.214348 0.006506 464.317322
12 464.317322 0.000358 -0.000089 0.007929 72.977173 0.007929 464.317322
13 464.317322 0.000358 -0.000089 0.008001 73.131012 0.008001 464.317322
[L_Toe2_02]
11 342.235809 -0.000477 0.000238 -0.002420 -57.376801 -0.002420 342.235809
12 342.235809 -0.000477 0.000238 -0.002504 -46.147381 -0.002504 342.235809
13 342.235809 -0.000477 0.000238 -0.002596 -36.988091 -0.002596 342.235809
[L_Toe2_03]
11 420.210846 -0.000715 0.000000 -0.000209 57.143940 -0.003855 420.210846
12 420.210846 -0.000715 0.000000 0.006744 42.731709 -0.000889 420.210846
13 420.210846 -0.000715 0.000000 0.006436 32.905624 -0.001525 420.210846
[L_Toe3_02]
11 329.270111 0.000954 0.000000 0.001184 -74.748703 0.001184 329.270111
12 329.270111 0.000954 0.000000 -0.011314 -71.247864 0.010149 329.270111
13 329.270111 0.000954 0.000000 -0.010310 -69.288475 0.009142 329.270111
[L_Toe3_03]
11 439.137451 -0.001907 0.000954 0.021929 83.864166 0.021929 439.137451
12 439.137451 -0.001907 0.000954 -0.002966 76.034233 -0.006489 439.137451
13 439.137451 -0.001907 0.000954 -0.001928 72.118317 -0.005468 439.137451
[planeLockWeightLeft]
11 1000.000488 -0.000203 -0.000434 -0.011826 -0.004376 0.005620 1000.000488
12 1000.000488 -0.000254 -0.000455 -0.011826 -0.004376 0.005620 1000.000488
13 1000.000488 -0.000305 -0.000477 -0.011826 -0.004376 0.005620 1000.000488
[R_Leg01]
11 761.455627 -0.001907 -0.000358 102.346939 -1.285778 60.524246 761.455688
12 761.455627 -0.001907 -0.000358 106.404655 17.193438 72.522827 761.455688
13 761.455627 -0.001907 -0.000358 106.797485 17.610706 81.799583 761.455688
[R_Leg02]
11 1441.140625 0.000000 -0.000238 -0.778814 0.086552 -120.980850 1441.140625
12 1441.140625 0.000000 -0.000238 0.039499 0.096356 -88.775566 1441.140625
13 1441.140625 0.000000 -0.000238 0.114054 0.089737 -78.985458 1441.140625
[R_Leg03]
11 1686.963989 0.000954 0.001431 0.018584 -0.007754 115.298210 1686.963989
12 1686.963989 0.000954 0.001431 -0.004580 0.000781 109.361374 1686.963989
13 1686.963989 0.000954 0.001431 -0.035643 0.006825 100.605873 1686.963989
[R_Foot]
11 3041.560059 -30.531288 -11.204481 14.363765 -22.542891 86.111938 3041.734131
12 3041.560059 -30.531288 -11.204481 15.635787 -22.088388 82.255417 3041.734131
13 3041.560059 -30.531288 -11.204481 12.792276 -21.365803 86.772682 3041.734131
[planeAlignerRight]
11 -154.814468 -744.222717 -88.092369 -36.826962 -87.072563 -55.083469 765.241943
12 -157.101624 -750.194031 -66.677422 -35.566235 -89.195946 -54.967297 769.361938
13 -157.670898 -752.450378 -56.434639 0.000000 -89.951546 -90.004936 770.860901
[R_Toe1_01]
11 -188.383347 -224.864899 21.052242 90.400551 3.232431 -149.713547 294.101532
12 -188.383347 -224.864899 21.052242 92.288704 3.766687 -147.388794 294.101532
13 -188.383347 -224.864899 21.052242 92.806252 3.877513 -146.579895 294.101532
[R_Toe2_01]
11 200.637817 -220.002121 -148.787384 -100.827324 18.411655 -58.364239 332.857574
12 200.637817 -220.002121 -148.787384 -101.704788 17.397543 -57.410732 332.857574
13 200.637817 -220.002121 -148.787384 -102.420227 16.812586 -57.007694 332.857574
[R_Toe3_01]
11 188.606735 -220.092957 191.126343 -72.891006 -12.782242 -60.808041 347.192566
12 188.606735 -220.092957 191.126343 -73.132507 -13.074897 -57.901699 347.192566
13 188.606735 -220.092957 191.126343 -72.984703 -13.244081 -56.832623 347.192566
[planeLockWeightRight]
11 259.258942 0.000076 -0.000019 -0.011823 -0.004379 -0.000027 259.258942
12 740.739929 0.000458 -0.000029 -0.011823 -0.004379 -0.000027 740.739929
13 999.999573 0.000229 -0.000153 -0.011823 -0.004379 -0.000027 999.999573
[R_Toe1_02]
11 413.762085 0.000477 -0.000119 0.001395 -24.613911 0.001395 413.762085
12 413.762085 0.000477 -0.000119 0.001408 -22.956141 0.001408 413.762085
13 413.762085 0.000477 -0.000119 0.001415 -22.068624 0.001415 413.762085
[R_Toe1_03]
11 464.317810 0.000000 0.001088 0.000615 38.596424 -0.003266 464.317810
12 464.317810 0.000000 0.001088 0.000803 32.364529 -0.003188 464.317810
13 464.317810 0.000000 0.001088 0.000876 29.761965 -0.003167 464.317810
[R_Toe2_02]
11 342.234741 -0.000954 0.000238 -0.002338 -76.886269 -0.002338 342.234741
12 342.234741 -0.000954 0.000238 -0.002336 -77.734879 -0.002336 342.234741
13 342.234741 -0.000954 0.000238 -0.002336 -78.052849 -0.002336 342.234741
[R_Toe2_03]
11 420.210846 0.000715 -0.000268 -179.991531 80.180511 -179.995041 420.210846
12 420.210846 0.000715 -0.000268 -179.993347 76.486946 -179.996872 420.210846
13 420.210846 0.000715 -0.000268 -179.993820 75.058151 -179.997345 420.210846
[R_Toe3_02]
11 329.270355 -0.000477 -0.000954 0.001177 -81.586327 0.001177 329.270355
12 329.270355 -0.000477 -0.000954 0.001176 -82.418556 0.001176 329.270355
13 329.270355 -0.000477 -0.000954 0.001176 -82.655403 0.001176 329.270355
[R_Toe3_03]
11 439.137939 0.000238 0.001431 -179.997696 73.772743 -179.994156 439.137939
12 439.137939 0.000238 0.001431 -179.998535 69.569252 -179.994980 439.137939
13 439.137939 0.000238 0.001431 -179.998749 68.184013 -179.995178 439.137939
[Rear_Leg02]
11 1162.777710 -0.029802 0.005960 4.402862 -7.293498 -98.676346 1162.777710
12 1162.777710 -0.029802 0.005960 3.974473 -6.638170 -98.136162 1162.777710
13 1162.777710 -0.029802 0.005960 4.351464 -7.165582 -97.881844 1162.777710
[Rear_Leg03]
11 607.192505 -0.013351 -0.073195 0.010343 -0.005401 71.495544 607.192505
12 607.192505 -0.013351 -0.073195 0.010342 -0.005404 71.533653 607.192505
13 607.192505 -0.013351 -0.073195 0.010340 -0.005407 71.571754 607.192505
[Rear_Leg04]
11 995.874512 -0.020504 -0.011921 -0.041229 -0.016406 73.964600 995.874573
12 995.874512 -0.020504 -0.011921 -0.041237 -0.016386 74.020340 995.874573
13 995.874512 -0.020504 -0.011921 -0.041245 -0.016366 74.076073 995.874573
[Rear_Foot]
11 3096.176270 -0.067472 -0.041425 -33.539047 74.409912 124.647377 3096.176270
12 3096.176270 -0.067472 -0.041425 -32.061409 75.265038 125.449814 3096.176270
13 3096.176270 -0.067472 -0.041425 -36.281258 75.702736 120.503937 3096.176270
[planeAlignerCenter]
11 -36.344341 -84.538879 -599.188965 12.240769 -0.001473 179.998184 606.213806
12 -30.749975 -79.389961 -625.131653 12.240773 -0.001473 179.998184 630.902466
13 -23.943775 -71.575935 -657.025574 12.240772 -0.001473 179.998184 661.346375
[Rear_Toe1_01]
11 0.653352 83.966492 -371.173737 1.401666 27.105320 92.624855 380.553192
12 0.653352 83.966492 -371.173737 1.275697 29.143803 92.297943 380.553192
13 0.653352 83.966492 -371.173737 1.103408 31.732109 91.915092 380.553192
[Rear_Toe2_01]
11 178.200760 -294.826019 -362.060547 -6.232728 24.563562 -69.171959 499.765686
12 178.200760 -294.826019 -362.060547 -5.749947 26.090759 -68.583046 499.765686
13 178.200760 -294.826019 -362.060547 -5.242924 27.613297 -67.971626 499.765686
[Rear_Toe3_01]
11 -153.359680 -308.780914 -362.060852 4.086410 22.562027 -112.643730 499.952881
12 -153.359680 -308.780914 -362.060852 4.061909 24.234983 -112.475899 499.952881
13 -153.359680 -308.780914 -362.060852 4.042516 25.907991 -112.306549 499.952881
[planeLockWeightCenter]
11 1000.000122 0.000532 -0.000157 -0.011814 -0.004373 -0.000015 1000.000122
12 1000.000122 0.000519 -0.000145 -0.011814 -0.004373 -0.000015 1000.000122
13 1000.000122 0.000506 -0.000133 -0.011814 -0.004373 -0.000015 1000.000122
[Rear_Toe1_02]
11 379.707825 0.194073 0.000477 -0.001051 -33.164387 -0.001051 379.707855
12 379.707825 0.194073 0.000477 -0.000256 -33.316128 -0.000256 379.707855
13 379.707825 0.194073 0.000477 0.000538 -33.467869 0.000538 379.707855
[Rear_Toe1_03]
11 500.129700 0.165701 0.000119 -0.016189 86.327843 -0.019688 500.129761
12 500.129700 0.165701 0.000119 0.019715 83.174591 0.019715 500.129761
13 500.129700 0.165701 0.000119 0.012262 79.015358 0.012262 500.129761
[Rear_Toe2_02]
11 340.494507 0.000238 -0.000954 0.001199 -66.581078 0.001199 340.494507
12 340.494507 0.000238 -0.000954 0.001198 -66.748581 0.001198 340.494507
13 340.494507 0.000238 -0.000954 0.001198 -66.916031 0.001198 340.494507
[Rear_Toe2_03]
11 433.103577 0.000000 0.000238 0.005433 65.048042 0.005433 433.103546
12 433.103577 0.000000 0.000238 0.005480 65.265480 0.005480 433.103546
13 433.103577 0.000000 0.000238 0.005528 65.482903 0.005528 433.103546
[Rear_Toe3_02]
11 340.494141 -0.000358 -0.000477 -0.002417 -57.980160 -0.002417 340.494171
12 340.494141 -0.000358 -0.000477 -0.002411 -58.904602 -0.002411 340.494171
13 340.494141 -0.000358 -0.000477 -0.000681 -60.236599 -0.003404 340.494171
[Rear_Toe3_03]
11 433.103577 0.001431 -0.000238 0.000000 53.605576 -0.003681 433.103546
12 433.103577 0.001431 -0.000238 -0.000063 54.730404 -0.003732 433.103546
13 433.103577 0.001431 -0.000238 -0.000163 56.417645 -0.003817 433.103546
[Back_Bone]
11 1312.175781 -701.934692 0.000954 -0.275151 0.640277 -84.977081 1488.125488
12 1312.175781 -701.934692 0.000954 -0.541062 0.724812 -84.894485 1488.125488
13 1312.175781 -701.934692 0.000954 -0.806862 0.809730 -84.812279 1488.125488
[Head]
11 1406.159424 809.709290 0.001431 3.366504 -2.326856 6.052950 1622.625488
12 1406.159424 809.709290 0.001431 3.809698 -2.442969 5.733169 1622.625488
13 1406.159424 809.709290 0.001431 4.253611 -2.556614 5.412439 1622.625488
[Motor_Bone]
11 1158.364380 -417.834747 0.000477 -0.811084 0.098215 -105.891487 1231.419434
12 1158.364380 -417.834747 0.000477 -0.882653 0.100442 -105.889076 1231.419434
13 1158.364380 -417.834747 0.000477 -1.083235 0.103882 -105.884850 1231.419434
[Ping_Mechanism]
11 1245.384399 -448.062744 26.796675 0.000103 -0.000053 82.120995 1323.805420
12 1258.666138 -454.259644 15.289374 0.000103 -0.000053 82.120995 1338.217529
13 1271.947876 -460.456512 3.782073 0.000103 -0.000053 82.120995 1352.732788
[BN_LookIK]
11 193.241119 1380.371704 -0.002861 0.000000 89.965736 -31.038179 1393.832153
12 193.241119 1380.371704 -0.002861 0.000000 89.965736 -31.038179 1393.832153
13 193.241119 1380.371704 -0.002861 0.000000 89.965736 -31.038179 1393.832153
[bottomMouth]
11 -435.092926 615.759399 -0.000954 -0.000022 0.000016 73.527184 753.966492
12 -435.092926 615.759399 -0.000954 -0.000022 0.000016 73.527184 753.966492
13 -435.092926 615.759399 -0.000954 -0.000022 0.000016 73.527184 753.966492
[L_Mouth01]
11 554.440979 7.658243 838.222046 150.204178 23.759130 109.605339 1005.027161
12 554.440979 7.658243 838.222046 150.204178 23.759130 109.605339 1005.027161
13 554.440979 7.658243 838.222046 150.204178 23.759130 109.605339 1005.027161
[L_mouthFront]
11 551.629089 934.514771 339.150421 0.000081 2.804060 79.119301 1136.941284
12 551.629089 934.514771 339.150421 0.000081 2.804060 79.119301 1136.941284
13 551.629089 934.514771 339.150421 0.000081 2.804060 79.119301 1136.941284
[mouthGun]
11 55.332661 1627.420898 0.000000 0.000023 0.000009 -11.038128 1628.361328
12 55.332661 1627.420898 0.000000 0.000023 0.000009 -11.038128 1628.361328
13 55.332661 1627.420898 0.000000 0.000023 0.000009 -11.038128 1628.361328
[R_Mouth01]
11 554.442383 7.659197 -838.223938 29.795891 -23.759109 109.605331 1005.029541
12 554.442383 7.659197 -838.223938 29.795891 -23.759109 109.605331 1005.029541
13 554.442383 7.659197 -838.223938 29.795891 -23.759109 109.605331 1005.029541
[R_mouthFront]
11 551.629089 934.514282 -339.151367 0.000029 -2.803930 79.119133 1136.941162
12 551.629089 934.514282 -339.151367 0.000029 -2.803930 79.119133 1136.941162
13 551.629089 934.514282 -339.151367 0.000029 -2.803930 79.119133 1136.941162
[TopMouth]
11 461.269867 -56.106091 -0.008583 -0.000059 -0.000268 92.025169 464.669525
12 461.269867 -56.106091 -0.008583 -0.000059 -0.000268 92.025169 464.669525
13 461.269867 -56.106091 -0.008583 -0.000059 -0.000268 92.025169 464.669525
[weapon_bone]
11 -987.239868 1448.372803 0.001431 0.000000 89.965736 -31.038221 1752.833740
12 -987.239868 1448.372803 0.001431 0.000000 89.965736 -31.038221 1752.833740
13 -987.239868 1448.372803 0.001431 0.000000 89.965736 -31.038221 1752.833740
